<svg width="17" height="17" viewBox="0 0 17 17" fill="none" xmlns="http://www.w3.org/2000/svg">
<path fill-rule="evenodd" clip-rule="evenodd" d="M6.11648 15.9047H10.3231C11.2507 15.9048 12.0155 15.9048 12.6209 15.8234C13.2565 15.7379 13.8178 15.5516 14.2672 15.1022C14.7166 14.6528 14.9029 14.0915 14.9884 13.4559C15.0698 12.8506 15.0697 12.0857 15.0697 11.1581V10.7673C15.0697 10.389 14.763 10.0823 14.3847 10.0823C14.0064 10.0823 13.6997 10.389 13.6997 10.7673V11.1098C13.6997 12.0979 13.6983 12.77 13.6306 13.2734C13.5656 13.757 13.4509 13.981 13.2985 14.1335C13.146 14.2859 12.922 14.4006 12.4384 14.4656C11.935 14.5333 11.2629 14.5347 10.2748 14.5347H6.16482C5.17673 14.5347 4.50457 14.5333 4.00122 14.4656C3.51758 14.4006 3.29358 14.2859 3.14112 14.1335C2.98866 13.981 2.87401 13.757 2.80899 13.2734C2.74131 12.77 2.73986 12.0979 2.73986 11.1098V10.7673C2.73986 10.389 2.43318 10.0823 2.05487 10.0823C1.67656 10.0823 1.36987 10.389 1.36987 10.7673L1.36987 11.1581C1.36985 12.0857 1.36983 12.8506 1.45122 13.4559C1.53667 14.0915 1.72296 14.6528 2.17239 15.1022C2.62182 15.5516 3.18312 15.7379 3.81868 15.8234C4.42404 15.9048 5.18892 15.9048 6.11648 15.9047Z" fill="black"/>
<path d="M8.77524 11.0251C8.50184 11.404 7.93775 11.404 7.66435 11.0251L6.03734 8.77068C5.71039 8.31765 6.0341 7.68483 6.59279 7.68483H9.8468C10.4055 7.68483 10.7292 8.31765 10.4023 8.77068L8.77524 11.0251Z" fill="black"/>
<path fill-rule="evenodd" clip-rule="evenodd" d="M8.2198 1.5199C8.59811 1.5199 8.90479 1.82658 8.90479 2.20489V9.05481C8.90479 9.43312 8.59811 9.7398 8.2198 9.7398C7.84148 9.7398 7.5348 9.43312 7.5348 9.05481V2.20489C7.5348 1.82658 7.84148 1.5199 8.2198 1.5199Z" fill="black"/>
</svg>
