<svg width="25" height="25" viewBox="0 0 25 25" fill="none" xmlns="http://www.w3.org/2000/svg">
<path fill-rule="evenodd" clip-rule="evenodd" d="M12.2365 11.2239C10.4773 11.2239 8.91026 11.2879 7.62993 11.3693C6.4155 11.4465 5.48168 12.3731 5.39452 13.5789C5.33252 14.4368 5.28935 15.3406 5.28935 16.1861C5.28935 17.0316 5.33252 17.9355 5.39452 18.7933C5.48168 19.9992 6.4155 20.9257 7.62993 21.0029C8.91026 21.0843 10.4773 21.1484 12.2365 21.1484C13.9957 21.1484 15.5628 21.0843 16.8431 21.0029C18.0576 20.9257 18.9914 19.9992 19.0785 18.7933C19.1405 17.9355 19.1837 17.0316 19.1837 16.1861C19.1837 15.3406 19.1405 14.4368 19.0785 13.5789C18.9914 12.3731 18.0576 11.4465 16.8431 11.3693C15.5628 11.2879 13.9957 11.2239 12.2365 11.2239ZM7.50402 9.38841C5.30301 9.52831 3.57377 11.2361 3.41478 13.4359C3.35061 14.3237 3.30444 15.278 3.30444 16.1861C3.30444 17.0943 3.35061 18.0486 3.41478 18.9364C3.57377 21.1361 5.30301 22.844 7.50402 22.9839C8.82028 23.0675 10.4297 23.1333 12.2365 23.1333C14.0433 23.1333 15.6528 23.0675 16.969 22.9839C19.1701 22.844 20.8993 21.1361 21.0583 18.9364C21.1224 18.0486 21.1686 17.0943 21.1686 16.1861C21.1686 15.278 21.1224 14.3237 21.0583 13.4359C20.8993 11.2361 19.1701 9.52831 16.969 9.38841C15.6528 9.30474 14.0433 9.23895 12.2365 9.23895C10.4297 9.23895 8.82028 9.30474 7.50402 9.38841Z" fill="#4075FF"/>
<path fill-rule="evenodd" clip-rule="evenodd" d="M13.2291 18.1711C13.2291 17.3925 13.7414 16.7043 14.0547 15.9916C14.162 15.7474 14.2215 15.4775 14.2215 15.1937C14.2215 14.0975 13.3329 13.2088 12.2366 13.2088C11.1404 13.2088 10.2517 14.0975 10.2517 15.1937C10.2517 15.4775 10.3113 15.7474 10.4186 15.9916C10.7318 16.7043 11.2442 17.3925 11.2442 18.1711C11.2442 18.7192 11.6885 19.1635 12.2366 19.1635C12.7847 19.1635 13.2291 18.7192 13.2291 18.1711Z" fill="#4075FF"/>
<path fill-rule="evenodd" clip-rule="evenodd" d="M7.27441 6.26165C7.27441 3.52106 9.4961 1.29938 12.2367 1.29938C14.9773 1.29938 17.199 3.52106 17.199 6.26165V10.2315C17.199 10.7796 16.7546 11.2239 16.2065 11.2239C15.6584 11.2239 15.214 10.7796 15.214 10.2315V6.26165C15.214 4.6173 13.881 3.28429 12.2367 3.28429C10.5923 3.28429 9.25932 4.6173 9.25932 6.26165V10.2315C9.25932 10.7796 8.81499 11.2239 8.26687 11.2239C7.71875 11.2239 7.27441 10.7796 7.27441 10.2315V6.26165Z" fill="#4075FF"/>
</svg>
