<svg width="102" height="23" viewBox="0 0 102 23" fill="none" xmlns="http://www.w3.org/2000/svg">
<g clip-path="url(#clip0_1_1035)">
<path d="M0.107422 3.16233L9.21501 1.91052V10.6994H0.108039L0.107422 3.16233ZM9.21501 11.8242V20.5138L0.108555 19.2637L0.108039 11.8246H9.21501V11.8242ZM10.2225 1.77233L22.3415 0.106445V10.6994H10.2225V1.77233ZM22.3415 11.8242V22.3162L10.2225 20.6519V11.8242H22.3415ZM46.4159 5.22047L42.9133 17.9874H40.5159L38.0828 9.0576C37.9816 8.67794 37.9193 8.26233 37.8955 7.81121H37.8599C37.8301 8.23275 37.7589 8.6422 37.6461 9.03979L35.204 17.9874H32.753L29.1791 5.22047H31.5053L33.8225 14.5686C33.9175 14.9605 33.977 15.3699 34.0008 15.7972H34.0454C34.069 15.4946 34.1524 15.0849 34.295 14.5686L36.9152 5.22047H39.0987L41.523 14.6399C41.6062 14.9605 41.6685 15.3402 41.7102 15.7794H41.7458C41.7636 15.4827 41.8319 15.0909 41.9508 14.604L44.2235 5.22047H46.4159ZM48.453 6.95658C48.1143 6.95658 47.8247 6.84684 47.584 6.62707C47.3434 6.4075 47.2231 6.12845 47.2231 5.79024C47.2231 5.45193 47.3434 5.17001 47.584 4.9444C47.8247 4.71889 48.1143 4.60609 48.453 4.60609C48.8035 4.60609 49.1006 4.71889 49.3442 4.9444C49.5878 5.17 49.7096 5.45192 49.7096 5.79024C49.7096 6.11064 49.5878 6.38539 49.3442 6.61376C49.1006 6.84234 48.8035 6.95658 48.453 6.95658ZM49.4779 17.9874H47.4102V8.87069H49.4779V17.9874ZM59.759 17.9874H57.6914V12.8503C57.6914 11.147 57.0883 10.2952 55.882 10.2952C55.2523 10.2952 54.7325 10.5312 54.3224 11.003C53.9125 11.4747 53.7074 12.0699 53.7074 12.7881V17.9874H51.6308V8.87069H53.7074V10.3842H53.743C54.4262 9.23275 55.4126 8.65696 56.702 8.65696C57.6943 8.65696 58.4518 8.9791 58.9747 9.62298C59.4975 10.2671 59.759 11.1973 59.759 12.4141V17.9874H59.759ZM70.0312 17.9874H67.9635V16.4382H67.9279C67.2623 17.6136 66.2374 18.2011 64.853 18.2011C63.7301 18.2011 62.8313 17.7931 62.157 16.9769C61.4826 16.1608 61.1454 15.0493 61.1454 13.6426C61.1454 12.135 61.5182 10.9273 62.264 10.0192C63.0097 9.11106 64.0034 8.65697 65.2453 8.65697C66.4751 8.65697 67.3694 9.14976 67.9279 10.1349H67.9635V4.49031H70.0313L70.0312 17.9874ZM67.9903 13.8207V12.6278C67.9903 11.9808 67.7792 11.432 67.3575 10.9807C66.9355 10.5297 66.3979 10.304 65.7442 10.304C64.9718 10.304 64.3644 10.5921 63.9217 11.1677C63.4791 11.7436 63.2578 12.542 63.2578 13.5628C63.2578 14.4884 63.4701 15.2203 63.8949 15.7573C64.3197 16.2945 64.8917 16.5629 65.6105 16.5629C66.3177 16.5629 66.8909 16.3033 67.3307 15.7839C67.7704 15.2645 67.9903 14.6102 67.9903 13.8207ZM76.2304 18.2011C74.8221 18.2011 73.6977 17.7753 72.8569 16.9236C72.0161 16.072 71.5958 14.9427 71.5958 13.5358C71.5958 12.0046 72.0339 10.8087 72.9104 9.94799C73.7868 9.08741 74.9677 8.65697 76.4532 8.65697C77.8791 8.65697 78.9902 9.07544 79.7864 9.91237C80.5826 10.7493 80.9808 11.9096 80.9808 13.3935C80.9808 14.8479 80.5515 16.0124 79.6928 16.888C78.8342 17.7634 77.6801 18.2011 76.2304 18.2011ZM76.3283 10.304C75.5203 10.304 74.8815 10.586 74.4123 11.15C73.9428 11.7139 73.7082 12.4912 73.7082 13.4823C73.7082 14.438 73.9457 15.1904 74.4211 15.7395C74.8965 16.2885 75.5321 16.5629 76.3283 16.5629C77.1423 16.5629 77.7678 16.2928 78.2045 15.753C78.6412 15.2127 78.8596 14.4442 78.8596 13.4467C78.8596 12.4439 78.6412 11.6692 78.2045 11.1232C77.7678 10.577 77.1423 10.304 76.3283 10.304ZM94.8092 8.87069L92.1176 17.9874H89.9518L88.2941 11.8087C88.2286 11.5714 88.1873 11.3043 88.1694 11.0075H88.1336C88.1217 11.2093 88.0683 11.4702 87.9733 11.7908L86.1729 17.9874H84.0517L81.3692 8.87069H83.5082L85.1659 15.441C85.2193 15.6369 85.2549 15.8983 85.2727 16.2245H85.3352C85.353 15.9751 85.4005 15.7081 85.4777 15.4234L87.3227 8.87069H89.2656L90.9054 15.4678C90.9589 15.6756 90.9976 15.9368 91.0213 16.2513H91.0838C91.0956 16.032 91.1401 15.7704 91.2175 15.4678L92.8395 8.87069H94.8092ZM95.224 17.7026V15.7882C95.9964 16.376 96.8491 16.6698 97.7819 16.6698C99.0297 16.6698 99.6535 16.3021 99.6535 15.5659C99.6535 15.3581 99.6001 15.1816 99.4932 15.036C99.3861 14.8907 99.242 14.7617 99.0608 14.6487C98.8796 14.5361 98.6657 14.4349 98.4192 14.3461L97.5947 14.0433C97.2205 13.8951 96.8831 13.7378 96.5832 13.5716C96.2831 13.4054 96.0335 13.2172 95.8345 13.0061C95.6355 12.7955 95.4854 12.5565 95.3845 12.2896C95.2834 12.0224 95.233 11.7106 95.233 11.3546C95.233 10.9155 95.3368 10.5282 95.545 10.1926C95.7528 9.85759 96.0321 9.57557 96.3828 9.347C96.7333 9.11852 97.1315 8.94635 97.577 8.83057C98.0226 8.7149 98.4831 8.65696 98.9585 8.65696C99.8021 8.65696 100.557 8.78471 101.222 9.0398V10.8473C100.581 10.408 99.8437 10.1883 99.0119 10.1883C98.7505 10.1883 98.5142 10.2149 98.3033 10.2684C98.0924 10.3218 97.9125 10.3961 97.7641 10.491C97.6156 10.586 97.4998 10.7003 97.4166 10.8337C97.3333 10.9673 97.2917 11.1143 97.2917 11.2745C97.2917 11.4703 97.3333 11.6367 97.4166 11.773C97.4998 11.9096 97.623 12.0298 97.7864 12.1338C97.9498 12.2376 98.1459 12.3326 98.3746 12.4186C98.6032 12.5045 98.8663 12.5981 99.1634 12.6988C99.5556 12.8591 99.9076 13.0227 100.22 13.1887C100.531 13.3548 100.797 13.5435 101.017 13.7542C101.237 13.9649 101.406 14.2081 101.525 14.4841C101.644 14.76 101.703 15.088 101.703 15.4678C101.703 15.9309 101.597 16.3346 101.383 16.6788C101.169 17.0227 100.884 17.3079 100.527 17.5333C100.17 17.7589 99.7589 17.9264 99.2926 18.0363C98.8262 18.1463 98.3344 18.2011 97.8177 18.2011C96.8195 18.2011 95.9549 18.0349 95.224 17.7026Z" fill="#0DADEA"/>
</g>
<defs>
<clipPath id="clip0_1_1035">
<rect width="101.772" height="22.4527" fill="white"/>
</clipPath>
</defs>
</svg>
